<svg width="128" height="61" viewBox="0 0 128 61" fill="none" xmlns="http://www.w3.org/2000/svg">
<path opacity="0.1" d="M2.4467 30.7444C2.4467 28.6759 4.12359 26.999 6.1921 26.999C8.26061 26.999 9.9375 28.6759 9.9375 30.7444C9.9375 32.8129 8.26061 34.4898 6.1921 34.4898C4.12359 34.4898 2.4467 32.8129 2.4467 30.7444Z" stroke="#3A405A" stroke-width="0.6832" stroke-miterlimit="10"/>
<path opacity="0.18" d="M9.17933 25.4492H9.19153C12.1157 25.4492 14.4863 27.8198 14.4863 30.744V30.7562C14.4863 33.6804 12.1157 36.051 9.19153 36.051H9.17933C6.25511 36.051 3.88453 33.6804 3.88453 30.7562V30.744C3.88453 27.8198 6.25511 25.4492 9.17933 25.4492Z" stroke="#3A405A" stroke-width="0.6832" stroke-miterlimit="10"/>
<path opacity="0.26" d="M5.35018 30.7497C5.35018 26.9664 8.41714 23.8994 12.2005 23.8994C15.9838 23.8994 19.0508 26.9664 19.0508 30.7497C19.0508 34.5331 15.9838 37.6 12.2005 37.6C8.41714 37.6 5.35018 34.5331 5.35018 30.7497Z" stroke="#3A405A" stroke-width="0.6832" stroke-miterlimit="10"/>
<path opacity="0.35" d="M6.78996 30.7564C6.78996 26.1139 10.5533 22.3506 15.1958 22.3506C19.8381 22.3506 23.6016 26.1139 23.6016 30.7564C23.6016 35.3987 19.8381 39.1622 15.1958 39.1622C10.5533 39.1622 6.78996 35.3987 6.78996 30.7564Z" stroke="#3A405A" stroke-width="0.6832" stroke-miterlimit="10"/>
<path opacity="0.43" d="M8.25171 30.756C8.25171 25.2579 12.7087 20.8008 18.2069 20.8008C23.705 20.8008 28.1621 25.2579 28.1621 30.756C28.1621 36.2542 23.705 40.7112 18.2069 40.7112C12.7087 40.7112 8.25171 36.2542 8.25171 30.756Z" stroke="#3A405A" stroke-width="0.6832" stroke-miterlimit="10"/>
<path opacity="0.51" d="M9.70564 30.7566C9.70564 24.4028 14.8565 19.252 21.2102 19.252C27.5641 19.252 32.7148 24.4028 32.7148 30.7566C32.7148 37.1104 27.5641 42.2612 21.2102 42.2612C14.8565 42.2612 9.70564 37.1104 9.70564 30.7566Z" stroke="#3A405A" stroke-width="0.6832" stroke-miterlimit="10"/>
<path opacity="0.59" d="M24.2111 17.6904H24.2233C31.4328 17.6904 37.2773 23.535 37.2773 30.7444V30.7566C37.2773 37.9661 31.4328 43.8106 24.2233 43.8106H24.2111C17.0017 43.8106 11.1571 37.9661 11.1571 30.7566V30.7444C11.1571 23.535 17.0017 17.6904 24.2111 17.6904Z" stroke="#3A405A" stroke-width="0.6832" stroke-miterlimit="10"/>
<path opacity="0.67" d="M27.2242 16.1406H27.2364C35.3016 16.1406 41.8398 22.6787 41.8398 30.744V30.7562C41.8398 38.8214 35.3016 45.3596 27.2364 45.3596H27.2242C19.1589 45.3596 12.6208 38.8214 12.6208 30.7562V30.744C12.6208 22.6787 19.1589 16.1406 27.2242 16.1406Z" stroke="#3A405A" stroke-width="0.6832" stroke-miterlimit="10"/>
<path opacity="0.75" d="M14.0728 30.7497C14.0728 21.8253 21.3074 14.5908 30.2317 14.5908C39.156 14.5908 46.3906 21.8253 46.3906 30.7497C46.3906 39.674 39.156 46.9086 30.2317 46.9086C21.3074 46.9086 14.0728 39.674 14.0728 30.7497Z" stroke="#3A405A" stroke-width="0.6832" stroke-miterlimit="10"/>
<path opacity="0.84" d="M15.5243 30.7554C15.5243 20.9721 23.4553 13.041 33.2387 13.041C43.0221 13.041 50.9531 20.9721 50.9531 30.7554C50.9531 40.5388 43.0221 48.4698 33.2387 48.4698C23.4553 48.4698 15.5243 40.5388 15.5243 30.7554Z" stroke="#3A405A" stroke-width="0.6832" stroke-miterlimit="10"/>
<path opacity="0.92" d="M16.9763 30.756C16.9763 20.1168 25.601 11.4922 36.2401 11.4922C46.8792 11.4922 55.5039 20.1168 55.5039 30.756C55.5039 41.3951 46.8792 50.0198 36.2401 50.0198C25.601 50.0198 16.9763 41.3951 16.9763 30.756Z" stroke="#3A405A" stroke-width="0.6832" stroke-miterlimit="10"/>
<path d="M18.44 30.7439C18.44 19.249 27.7584 9.93066 39.2532 9.93066C50.748 9.93066 60.0664 19.249 60.0664 30.7439C60.0664 42.2387 50.748 51.5571 39.2532 51.5571C27.7584 51.5571 18.44 42.2387 18.44 30.7439Z" stroke="#3A405A" stroke-width="0.6832" stroke-miterlimit="10"/>
<path d="M77.54 43.0442C78.4435 42.4187 79.213 41.7535 79.8484 41.0486C80.4838 40.3437 81.0199 39.6139 81.4568 38.8594C81.8837 38.1048 82.2262 37.3254 82.4844 36.5212C82.7326 35.727 82.9312 34.9228 83.0801 34.1086C82.951 33.4832 82.8021 32.9023 82.6333 32.3662C82.4546 31.8301 82.256 31.3138 82.0376 30.8174C81.8092 30.321 81.5561 29.8245 81.2781 29.3281C81.0001 28.8416 80.6923 28.3303 80.3547 27.7942L82.2163 25.3369C82.9312 26.846 83.4871 28.3651 83.8843 29.894C84.2814 31.423 84.4899 32.947 84.5098 34.4661C84.5098 35.2405 84.4502 36.0496 84.3311 36.8936C84.202 37.7474 83.9786 38.6261 83.6609 39.5295C83.3432 40.443 82.9113 41.3861 82.3652 42.3591C81.8192 43.3321 81.1242 44.3299 80.2803 45.3525L77.54 43.0442ZM95.4111 36C95.3218 36.9134 95.1877 37.7673 95.009 38.5615C94.8303 39.3558 94.597 40.0706 94.3091 40.7061C93.9715 41.4705 93.5545 42.2301 93.0581 42.9846C92.5617 43.7491 91.9759 44.5533 91.3008 45.3972L88.5308 43.0889C89.2655 42.5924 89.9158 42.0563 90.4817 41.4805C91.0476 40.9146 91.5391 40.3288 91.9561 39.7231C92.373 39.1175 92.7255 38.502 93.0134 37.8765C93.3014 37.251 93.5347 36.6255 93.7134 36C92.7702 36.0099 91.8866 35.995 91.0625 35.9553C90.2285 35.9156 89.4938 35.8213 88.8584 35.6724C88.223 35.5334 87.7067 35.3199 87.3096 35.032C86.9025 34.754 86.6642 34.3767 86.5947 33.9001C86.5054 33.4037 86.4855 32.8328 86.5352 32.1875C86.5848 31.5521 86.689 30.8968 86.8479 30.2217C87.0068 29.5565 87.2202 28.9012 87.4883 28.2559C87.7563 27.6204 88.0691 27.0496 88.4265 26.5432C88.774 26.0468 89.1612 25.6447 89.5881 25.3369C90.0051 25.0291 90.4469 24.8752 90.9136 24.8752C91.5192 24.8752 92.0802 25.1036 92.5964 25.5603C93.1028 26.0269 93.5496 26.6475 93.9368 27.4219C94.314 28.2062 94.6318 29.1047 94.8899 30.1174C95.1381 31.1401 95.3118 32.2024 95.4111 33.3044H97.0642V36H95.4111ZM93.8027 33.3044C93.7134 32.5201 93.5744 31.7904 93.3857 31.1152C93.1872 30.4401 92.9489 29.8494 92.6709 29.343C92.3929 28.8466 92.0802 28.4544 91.7327 28.1665C91.3752 27.8885 90.998 27.7495 90.6008 27.7495C90.3328 27.7495 90.0846 27.819 89.8562 27.958C89.6179 28.097 89.4045 28.2757 89.2158 28.4941C89.0173 28.7225 88.8435 28.9757 88.6946 29.2537C88.5357 29.5416 88.4017 29.8295 88.2925 30.1174C88.1833 30.4054 88.1038 30.6784 88.0542 30.9365C87.9946 31.2046 87.9648 31.4329 87.9648 31.6216C87.9648 31.9095 88.0989 32.1577 88.3669 32.3662C88.6251 32.5747 88.9726 32.7485 89.4094 32.8875C89.8463 33.0264 90.3526 33.1307 90.9285 33.2002C91.4944 33.2697 92.0901 33.3044 92.7156 33.3044H93.8027ZM113.655 33.3044C113.655 32.2818 113.53 31.4329 113.282 30.7578C113.034 30.0827 112.721 29.5416 112.344 29.1345C111.967 28.7374 111.545 28.4594 111.078 28.3005C110.611 28.1417 110.165 28.0623 109.738 28.0623C109.231 28.0623 108.715 28.1367 108.189 28.2856C107.663 28.4346 107.062 28.7026 106.387 29.0898C105.712 29.4771 104.932 30.0082 104.049 30.6833C103.155 31.3684 102.093 32.2421 100.862 33.3044H113.655ZM96.4536 36C96.2352 36 96.126 35.8858 96.126 35.6575V33.6768C96.126 33.4285 96.2352 33.3044 96.4536 33.3044H98.7917C98.9605 33.1059 99.1293 32.9172 99.2981 32.7385L99.8193 32.2024L101.026 31.0557V18.7544L103.17 17.429V29.3579L104.764 28.0176C105.369 27.5212 106.005 27.0595 106.67 26.6326C107.335 26.2056 108.01 25.8433 108.695 25.5454C109.37 25.2575 110.011 25.1135 110.616 25.1135C111.192 25.1135 111.709 25.2128 112.165 25.4114C112.622 25.6099 113.029 25.878 113.386 26.2156C113.744 26.5531 114.052 26.9453 114.31 27.3921C114.558 27.8389 114.767 28.3055 114.935 28.792C115.094 29.2884 115.213 29.7948 115.293 30.311C115.362 30.8273 115.397 31.3188 115.397 31.7854L115.382 32.53L115.323 33.3044H116.693V36H96.4536ZM125.703 33.3044C125.544 32.7882 125.38 32.3166 125.211 31.8896C125.042 31.4627 124.864 31.0507 124.675 30.6536C124.486 30.2664 124.288 29.8792 124.079 29.4919L123.26 28.0474L123.096 27.7942L125.062 25.5305C125.737 26.9602 126.229 28.3254 126.537 29.626C126.844 30.9266 126.998 32.0932 126.998 33.1257C126.998 33.6519 126.978 34.1583 126.939 34.6448C126.899 35.1412 126.854 35.5929 126.805 36H115.874C115.655 36 115.546 35.8858 115.546 35.6575V33.6768C115.546 33.4285 115.655 33.3044 115.874 33.3044H125.703ZM121.339 22.5222L123.394 20.4819L125.449 22.5371L123.394 24.5923L121.339 22.5222ZM117.214 22.5222L119.269 20.4819L121.324 22.5371L119.269 24.5923L117.214 22.5222Z" fill="#3A405A"/>
</svg>
